<svg viewBox="0 0 87.59 56.52" xmlns="http://www.w3.org/2000/svg">
  <g fill="#44B542">
    <path
      d="m25 31.05h-3.54v3.22h3.54a2.15 2.15 0 0 0 .94-.21 1.6 1.6 0 0 0 .89-1.42 1.45 1.45 0 0 0 -.52-1.15 2 2 0 0 0 -1.31-.44z" />
    <path
      d="m22.89 17.23a1.16 1.16 0 0 0 .43-.45 1.24 1.24 0 0 0 0-1.21 1.21 1.21 0 0 0 -.43-.44 1.11 1.11 0 0 0 -.59-.13h-1.91v2.4h1.91a1.12 1.12 0 0 0 .59-.17z" />
    <path
      d="m23.92 21.69a1.16 1.16 0 0 0 .17-.6 1.19 1.19 0 0 0 -.17-.61 1.16 1.16 0 0 0 -.44-.44 1.06 1.06 0 0 0 -.62-.17h-2.47v2.43h2.47a1.22 1.22 0 0 0 .62-.16 1.06 1.06 0 0 0 .44-.45z" />
    <path
      d="m36.14 21.66a3.24 3.24 0 0 0 1.24-1.25 3.67 3.67 0 0 0 0-3.55 3.26 3.26 0 0 0 -1.24-1.26 3.63 3.63 0 0 0 -3.53 0 3.26 3.26 0 0 0 -1.24 1.26 3.67 3.67 0 0 0 0 3.55 3.24 3.24 0 0 0 1.24 1.25 3.63 3.63 0 0 0 3.53 0z" />
    <path
      d="m46.49 21.66a3.63 3.63 0 0 0 3.53 0 3.24 3.24 0 0 0 1.24-1.25 3.67 3.67 0 0 0 0-3.55 3.18 3.18 0 0 0 -1.26-1.26 3.63 3.63 0 0 0 -3.53 0 3.26 3.26 0 0 0 -1.24 1.26 3.67 3.67 0 0 0 0 3.55 3.22 3.22 0 0 0 1.26 1.25z" />
    <path
      d="m87.59 27.23c0-5.35-3.51-10.16-8.88-12.38a10.29 10.29 0 0 0 .13-1.57c0-6.28-5.73-11.39-12.77-11.39a13.72 13.72 0 0 0 -8.07 2.55 16.86 16.86 0 0 0 -22.52-.25 20.6 20.6 0 0 0 -10.15-2.61c-10.4 0-18.85 7.42-18.85 16.58a14.83 14.83 0 0 0 .14 2 13.33 13.33 0 0 0 -6.62 11.26 13.14 13.14 0 0 0 6.05 10.86v.26c0 6.8 6.22 12.34 13.88 12.34a15.51 15.51 0 0 0 5.14-.88 17.71 17.71 0 0 0 20.47-1.61 18 18 0 0 0 4.9.67 18.68 18.68 0 0 0 3.42-.32 17.32 17.32 0 0 0 10.37 3.34c8.85 0 16.06-6.37 16.06-14.2a12.68 12.68 0 0 0 -.29-2.88 13.5 13.5 0 0 0 7.59-11.77zm-9.67 10.86a11.17 11.17 0 0 1 .67 3.79c0 6.9-6.44 12.5-14.36 12.5a15.66 15.66 0 0 1 -10-3.47 16.59 16.59 0 0 1 -3.84.45 15.92 15.92 0 0 1 -5.34-.89 15.41 15.41 0 0 1 -10.89 4.35 15.73 15.73 0 0 1 -8.94-2.71 13.8 13.8 0 0 1 -5.34 1.07c-6.72 0-12.18-4.77-12.18-10.64a8.92 8.92 0 0 1 .07-1.16 11.62 11.62 0 0 1 -6.12-10 11.77 11.77 0 0 1 6.86-10.3 13.07 13.07 0 0 1 -.33-2.92c0-8.2 7.69-14.88 17.15-14.88a18.89 18.89 0 0 1 10.42 3.06 15 15 0 0 1 22.1.44 11.76 11.76 0 0 1 8.22-3.19c6.1 0 11.07 4.35 11.07 9.69a8.61 8.61 0 0 1 -.43 2.66c5.43 1.65 9.18 6.13 9.18 11.29 0 4.69-3.2 8.93-7.97 10.86z" />
    <path
      d="m74.28 17.13a7 7 0 0 0 1.16-3.85c0-4.41-4.2-8-9.37-8a9.65 9.65 0 0 0 -8.37 4.4c-1.82-3.68-6.1-6.28-11.09-6.28a12.46 12.46 0 0 0 -10.53 5.3 16.87 16.87 0 0 0 -10.75-3.7c-8.53 0-15.45 5.88-15.45 13.16a11.18 11.18 0 0 0 .68 3.84c-4.22 1.6-7.16 5.2-7.16 9.39 0 3.91 2.57 7.31 6.34 9a7.74 7.74 0 0 0 -.29 2.08c0 4.94 4.69 8.94 10.48 8.94a11.87 11.87 0 0 0 5.54-1.35 13.85 13.85 0 0 0 8.74 3 13.38 13.38 0 0 0 10.41-4.67 14.39 14.39 0 0 0 5.82 1.21 14.82 14.82 0 0 0 4.29-.6 13.66 13.66 0 0 0 9.5 3.66c7 0 12.66-4.83 12.66-10.8a9.58 9.58 0 0 0 -1.32-4.81c5-1.25 8.62-5.18 8.62-9.84 0-5.03-4.28-9.21-9.91-10.08zm-17.83-4.82h2.76l4.07 6.41 4.1-6.41h2.75v12.69h-3.13v-7l-3.75 6-3.71-6v7h-3.09zm-13.79 3a6.54 6.54 0 0 1 2.34-2.31 6.42 6.42 0 0 1 8.8 2.36 6.51 6.51 0 0 1 -2.34 8.86 6.38 6.38 0 0 1 -6.46 0 6.51 6.51 0 0 1 -2.34-8.86zm-25.28-3h5.29a4.35 4.35 0 0 1 1.94.42 3.22 3.22 0 0 1 1.39 1.27 3.5 3.5 0 0 1 .5 1.89 2.83 2.83 0 0 1 -1.4 2.65 3.14 3.14 0 0 1 1.47 1.09 3.17 3.17 0 0 1 .53 1.89 3.47 3.47 0 0 1 -.5 1.88 3.17 3.17 0 0 1 -1.35 1.19 4.43 4.43 0 0 1 -1.93.4h-5.94zm12.75 22.91a4.88 4.88 0 0 1 -1.86 1.83 5.35 5.35 0 0 1 -2.63.66h-4.18v6.76h-4.21v-17.12h8.39a5 5 0 0 1 2.62.7 5.22 5.22 0 0 1 1.87 1.95 5.33 5.33 0 0 1 .68 2.64 5.21 5.21 0 0 1 -.68 2.58zm-1.33-13.34a6.51 6.51 0 0 1 0-6.5 6.59 6.59 0 0 1 2.34-2.38 6.43 6.43 0 0 1 6.46 0 6.51 6.51 0 0 1 0 11.22 6.44 6.44 0 0 1 -8.8-2.34zm5.31 19.37c-2.69-4-1.08-6.93-.65-7.48 3.36-4.34 8.54-2.71 8.54-2.07a1.6 1.6 0 0 1 -.57 1.05c-1.25 1.32-4.58 1.64-4.94 2-.71.73-.64 2.94-.41 4.59.11.71-1.14 3.15-1.97 1.91zm10.47-.19c-3.37 4.33-8.58 2.71-8.58 2.06a1.6 1.6 0 0 1 .57-1c1.26-1.32 4.59-1.64 5-2 .7-.73.64-3 .4-4.6-.1-.68 1.15-3.12 2-1.88 2.64 3.95 1.03 6.87.61 7.42zm19.94 3.41h-5.32l-1.44-3.75-1.44 3.75h-5.32l-5.68-17.12h4.43l4.25 13.54 1.86-5.19-3.21-8.35h4.08l1 2.94 1.05-2.94h4.08l-3.2 8.35 1.85 5.19 4.23-13.54h4.46z" />
  </g>
</svg>